<?xml version="1.0" standalone="no"?>
<!DOCTYPE svg PUBLIC "-//W3C//DTD SVG 20010904//EN"
 "http://www.w3.org/TR/2001/REC-SVG-20010904/DTD/svg10.dtd">
<svg version="1.0" xmlns="http://www.w3.org/2000/svg"
 width="700.000000pt" height="700.000000pt" viewBox="0 0 700.000000 700.000000"
 preserveAspectRatio="xMidYMid meet">
<metadata>
Created by potrace 1.11, written by Peter Selinger 2001-2013
</metadata>
<g transform="translate(0.000000,700.000000) scale(0.100000,-0.100000)"
fill="#000000" stroke="none">
<path d="M2978 6115 c-2 -2 -43 -6 -93 -9 -98 -8 -166 -14 -205 -21 -14 -3
-41 -7 -60 -10 -122 -18 -343 -77 -435 -115 -11 -5 -31 -12 -45 -16 -50 -14
-287 -132 -380 -189 -284 -176 -516 -400 -733 -711 -31 -45 -57 -84 -57 -88 0
-3 -16 -31 -36 -62 -62 -96 -174 -323 -237 -479 -102 -253 -225 -704 -244
-894 -15 -144 -7 -449 12 -503 2 -7 6 -24 9 -38 25 -149 129 -369 240 -505 96
-118 254 -265 284 -265 6 0 12 -4 14 -9 5 -13 120 -64 225 -100 106 -36 195
-45 273 -27 251 60 534 108 715 121 50 4 99 9 110 11 34 7 385 6 480 0 50 -4
115 -11 145 -16 30 -5 78 -12 105 -15 184 -19 534 -131 765 -243 152 -74 413
-227 475 -280 6 -4 25 -17 43 -27 17 -11 32 -23 32 -26 0 -4 8 -10 18 -13 10
-4 27 -14 38 -24 10 -10 46 -38 79 -62 33 -24 62 -47 63 -52 2 -4 8 -8 13 -8
6 0 20 -9 32 -21 12 -12 38 -33 57 -47 19 -15 37 -29 40 -32 3 -3 28 -24 55
-45 28 -22 52 -42 55 -45 3 -3 27 -24 55 -45 27 -22 59 -48 69 -57 11 -10 23
-18 26 -18 4 0 17 -9 30 -20 13 -11 29 -20 37 -20 7 0 13 -4 13 -9 0 -13 168
-73 241 -86 318 -55 628 131 835 502 88 156 119 233 187 468 70 238 94 357
106 515 55 760 -237 1682 -758 2395 -36 50 -68 92 -71 95 -3 3 -35 41 -70 85
-70 87 -329 350 -399 406 -24 18 -48 39 -55 44 -6 6 -29 24 -51 40 -39 29 -48
36 -79 63 -8 6 -19 12 -25 12 -5 0 -11 3 -13 8 -4 10 -97 72 -108 72 -5 0 -15
6 -22 13 -15 16 -31 25 -170 94 -152 75 -421 173 -563 203 -33 7 -73 16 -90
21 -35 10 -246 45 -325 54 -30 3 -69 8 -86 10 -109 14 -181 18 -361 20 -112 1
-204 1 -205 0z"/>
</g>
</svg>
